<svg xmlns="http://www.w3.org/2000/svg" width="31.879" height="40.717" viewBox="0 0 31.879 40.717">
  <g id="Group_361" data-name="Group 361" transform="translate(-508.052 -367.414)">
    <g id="Group_359" data-name="Group 359" transform="translate(508.552 367.914)">
      <path id="Path_38" data-name="Path 38" d="M523.991,407.631h0a1.377,1.377,0,0,1-1.012-.441c-.59-.633-14.427-15.623-14.427-23.836a15.439,15.439,0,1,1,30.879,0c0,8.214-13.839,23.2-14.429,23.836A1.376,1.376,0,0,1,523.991,407.631Zm0-36.955a12.692,12.692,0,0,0-12.678,12.677c0,5.452,8.378,16,12.678,20.841,4.3-4.839,12.677-15.39,12.677-20.841A12.692,12.692,0,0,0,523.991,370.676Z" transform="translate(-508.552 -367.914)" fill="#121a50" stroke="#121a50" stroke-width="1"/>
    </g>
    <g id="Group_360" data-name="Group 360" transform="translate(517.04 375.728)">
      <path id="Path_39" data-name="Path 39" d="M523.564,389.237a6.951,6.951,0,1,1,6.951-6.951A6.959,6.959,0,0,1,523.564,389.237Zm0-11.141a4.189,4.189,0,1,0,4.189,4.19A4.195,4.195,0,0,0,523.564,378.1Z" transform="translate(-516.613 -375.335)" fill="#121a50" stroke="#121a50" stroke-width="1"/>
    </g>
  </g>
</svg>
