<svg xmlns="http://www.w3.org/2000/svg" width="416.601" height="315.031" viewBox="0 0 416.601 315.031">
  <g id="Group_387" data-name="Group 387" transform="translate(-947.191 -530.195)">
    <path id="Path_65" data-name="Path 65" d="M1317.457,617.515c-16.383,0-32.765.049-49.147-.066-2.607-.016-3.346.623-3.477,3.3-2.213,42.638-35.782,75.123-78.486,75.37q-78.665.467-157.347,0c-43.654-.229-77.731-34.159-78.7-77.731-.18-8.053.033-16.12-.1-24.172-.032-2.23.476-3,2.87-2.985,15.579.115,31.141.149,46.72-.016,2.805-.033,3,1.066,2.969,3.312-.115,7.232-.1,14.48-.033,21.713.114,16.317,11.266,27.468,27.633,27.484q77.264.073,154.493,0c14.186,0,24.779-8.609,27.239-21.729.607-3.23.526-4.69-3.64-4.607-14.464.311-28.96.131-43.442.131h-4.788c1.377-1.428,2.246-2.378,3.148-3.28q36.21-36.234,72.385-72.5c2.329-2.345,3.477-2.607,5.953-.1q36.062,36.382,72.4,72.468c.984.967,1.575,2.607,3.345,2.59Z" transform="translate(46.335 148.883)" fill="#121a50"/>
    <path id="Path_66" data-name="Path 66" d="M947.191,609.852c13.5,0,29.026-.131,44.557.1,3.7.049,4.919-.591,5.084-4.673,1.639-40.293,34.5-73.336,74.828-74.681,22.106-.738,44.245-.229,66.366-.247q46.516-.024,93.016,0c35.306.049,64.169,20.286,76.058,53.4a72.631,72.631,0,0,1,4.183,23.664c.1,8.33-.05,16.661.115,24.992.049,2.345-.657,2.918-2.953,2.9q-23.345-.147-46.7,0c-2.346.016-2.951-.655-2.92-2.935.149-7.38.115-14.759.05-22.122-.131-16.12-11.217-27.386-27.288-27.419q-77.659-.1-155.3,0c-14.3.018-25.009,9.348-27.009,22.976-.426,2.984-.081,4.2,3.476,4.149,14.611-.229,29.24-.1,43.851-.1h3.936c.083,1.362-.787,1.689-1.312,2.214q-36.946,36.628-73.943,73.221c-1.378,1.361-2.3,2.788-4.46.558C996.093,660.181,971.232,634.631,947.191,609.852Z" transform="translate(0 0)" fill="#121a50"/>
  </g>
</svg>
