<svg xmlns="http://www.w3.org/2000/svg" width="344.001" height="344.006" viewBox="0 0 344.001 344.006">
  <g id="Group_357" data-name="Group 357" transform="translate(-463.671 -551.581)">
    <g id="Group_355" data-name="Group 355" transform="translate(554.325 615.759)">
      <path id="Path_36" data-name="Path 36" d="M591.118,662.946a53.91,53.91,0,1,0-58.042,0,81.467,81.467,0,0,0-52.325,75.972,26.51,26.51,0,0,0,26.481,26.476H616.962a26.505,26.505,0,0,0,26.476-26.476A81.463,81.463,0,0,0,591.118,662.946ZM522.1,617.584a39.99,39.99,0,1,1,39.99,39.99A40.037,40.037,0,0,1,522.1,617.584Zm94.858,133.893H507.231a12.577,12.577,0,0,1-12.559-12.559,67.421,67.421,0,1,1,134.843,0A12.573,12.573,0,0,1,616.962,751.477Z" transform="translate(-480.75 -563.672)" fill="#121a50"/>
    </g>
    <g id="Group_356" data-name="Group 356" transform="translate(463.671 551.581)">
      <path id="Path_37" data-name="Path 37" d="M635.669,895.587c-94.842,0-172-77.161-172-172.009s77.156-172,172-172,172,77.156,172,172S730.511,895.587,635.669,895.587Zm0-330.737c-87.522,0-158.728,71.206-158.728,158.728s71.206,158.739,158.728,158.739S794.4,811.112,794.4,723.579,723.2,564.851,635.669,564.851Z" transform="translate(-463.671 -551.581)" fill="#121a50"/>
    </g>
  </g>
</svg>
