<svg xmlns="http://www.w3.org/2000/svg" width="40.5" height="40.501" viewBox="0 0 40.5 40.501">
  <g id="Group_358" data-name="Group 358" transform="translate(-462.171 -550.081)">
    <g id="Group_355" data-name="Group 355" transform="translate(473.553 558.577)">
      <path id="Path_36" data-name="Path 36" d="M492.781,574.494a5.877,5.877,0,1,0-6.327,0,8.881,8.881,0,0,0-5.7,8.282,2.89,2.89,0,0,0,2.887,2.886H495.6a2.889,2.889,0,0,0,2.886-2.886A8.88,8.88,0,0,0,492.781,574.494Zm-7.523-4.945a4.359,4.359,0,1,1,4.359,4.359A4.364,4.364,0,0,1,485.258,569.549Zm10.341,14.6H483.637a1.371,1.371,0,0,1-1.369-1.369,7.35,7.35,0,1,1,14.7,0A1.371,1.371,0,0,1,495.6,584.145Z" transform="translate(-480.75 -563.672)" fill="#121a50" stroke="#121a50" stroke-width="3"/>
    </g>
    <g id="Group_356" data-name="Group 356" transform="translate(463.671 551.581)">
      <path id="Path_37" data-name="Path 37" d="M482.421,589.081a18.75,18.75,0,1,1,18.75-18.751A18.771,18.771,0,0,1,482.421,589.081Zm0-36.054a17.3,17.3,0,1,0,17.3,17.3A17.323,17.323,0,0,0,482.421,553.027Z" transform="translate(-463.671 -551.581)" fill="#121a50" stroke="#121a50" stroke-width="3"/>
    </g>
  </g>
</svg>
