<svg xmlns="http://www.w3.org/2000/svg" width="32" height="44.87" viewBox="0 0 32 44.87">
  <g id="Group_363" data-name="Group 363" transform="translate(-508.777 -148.245)">
    <path id="Path_41" data-name="Path 41" d="M533.432,149.245H516.124a6.352,6.352,0,0,0-6.347,6.344v30.18a6.353,6.353,0,0,0,6.347,6.345h17.308a6.353,6.353,0,0,0,6.345-6.345v-30.18A6.352,6.352,0,0,0,533.432,149.245Zm-17.308,2.927h17.308a3.423,3.423,0,0,1,3.418,3.417v24.18H512.705v-24.18A3.422,3.422,0,0,1,516.124,152.172Zm17.308,37.014H516.124a3.421,3.421,0,0,1-3.418-3.417V182.7H536.85v3.073A3.422,3.422,0,0,1,533.432,189.187Z" transform="translate(0 0)" fill="#121a50" stroke="#121a50" stroke-width="2"/>
    <path id="Path_42" data-name="Path 42" d="M522.977,155.885a1.171,1.171,0,1,0-1.171-1.171A1.171,1.171,0,0,0,522.977,155.885Z" transform="translate(1.4 0.5)" fill="#121a50" stroke="#121a50" stroke-width="2"/>
    <path id="Path_43" data-name="Path 43" d="M522.977,180.841a1.171,1.171,0,1,0,1.171,1.171A1.172,1.172,0,0,0,522.977,180.841Z" transform="translate(1.4 3.677)" fill="#121a50" stroke="#121a50" stroke-width="2"/>
  </g>
</svg>
