<svg xmlns="http://www.w3.org/2000/svg" width="40.324" height="33.077" viewBox="0 0 40.324 33.077">
  <g id="Group_433" data-name="Group 433" transform="translate(363.886 -115.543)">
    <path id="Path_124" data-name="Path 124" d="M-363.886,117.157a1.834,1.834,0,0,1,1.951-1.614q18.226.03,36.451.016a2.686,2.686,0,0,1,.782.075,2.012,2.012,0,0,1,1.138,2.043,1.852,1.852,0,0,1-1.333,1.877,3.824,3.824,0,0,1-.589.037q-18.226,0-36.452.014a1.837,1.837,0,0,1-1.948-1.62Z" transform="translate(0 0)" fill="#121a50"/>
    <path id="Path_125" data-name="Path 125" d="M-363.886,203.257a1.837,1.837,0,0,1,1.948-1.62q18.226.03,36.452.016a2.724,2.724,0,0,1,.782.078,2.013,2.013,0,0,1,1.14,2.041,1.853,1.853,0,0,1-1.331,1.879,4.258,4.258,0,0,1-.628.034q-18.206,0-36.412.015a1.834,1.834,0,0,1-1.951-1.614Z" transform="translate(0 -57.081)" fill="#121a50"/>
    <path id="Path_126" data-name="Path 126" d="M-357.8,162.689v-3.956h9.734v3.956Z" transform="translate(-4.032 -28.635)" fill="#121a50"/>
    <path id="Path_127" data-name="Path 127" d="M-241.379,158.718h9.728v3.968h-9.728Z" transform="translate(-93.959 -28.625)" fill="#121a50"/>
    <path id="Path_128" data-name="Path 128" d="M-299.591,158.733h9.722v3.957h-9.722Z" transform="translate(-48.995 -28.635)" fill="#121a50"/>
  </g>
</svg>
