<svg xmlns="http://www.w3.org/2000/svg" width="38.744" height="44" viewBox="0 0 38.744 44">
  <g id="Group_434" data-name="Group 434" transform="translate(824.495 -264.97)">
    <path id="Path_129" data-name="Path 129" d="M-785.751,308.322q0-20.856,0-41.711a2.359,2.359,0,0,0-.37-1.615c-.541,0-1.085-.005-1.632-.026h-36.355a1.413,1.413,0,0,0-.359.837c0,.477-.009.956-.027,1.438v41.077h2.818V267.4h33.1v40.925Z" fill="#121a50"/>
    <path id="Path_130" data-name="Path 130" d="M-723.278,352.592c1.242,0,2.485-.01,3.727,0,1.274.012,1.8.5,1.811,1.748q.028,3.815,0,7.63c-.009,1.22-.514,1.719-1.74,1.728q-3.808.027-7.615,0c-1.22-.009-1.724-.517-1.732-1.738q-.026-3.815,0-7.63c.008-1.207.535-1.72,1.742-1.737C-725.816,352.578-724.547,352.592-723.278,352.592Zm2.7,8.282V355.44h-5.436v5.434Z" transform="translate(-74.919 -68.624)" fill="#121a50"/>
    <path id="Path_131" data-name="Path 131" d="M-781.576,358.122c0,1.3.011,2.6,0,3.9-.013,1.142-.483,1.652-1.62,1.664q-3.888.039-7.777,0c-1.171-.011-1.658-.536-1.662-1.715q-.014-3.855,0-7.711c.005-1.119.513-1.661,1.63-1.672q3.888-.037,7.777,0c1.157.01,1.641.539,1.651,1.723C-781.567,355.579-781.576,356.851-781.576,358.122Zm-8.26,2.721h5.419V355.4h-5.419Z" transform="translate(-24.945 -68.609)" fill="#121a50"/>
    <path id="Path_132" data-name="Path 132" d="M-723.2,288.677c1.269,0,2.538-.011,3.807,0,1.082.012,1.627.493,1.64,1.569q.048,3.976,0,7.954c-.013,1.072-.556,1.544-1.652,1.549q-3.888.016-7.777,0a1.439,1.439,0,0,1-1.647-1.643q-.035-3.9,0-7.792c.011-1.128.544-1.626,1.659-1.638C-725.848,288.667-724.525,288.677-723.2,288.677Zm-2.8,2.8v5.469h5.439V291.48Z" transform="translate(-74.912 -18.565)" fill="#121a50"/>
    <path id="Path_133" data-name="Path 133" d="M-723.345,427.786c-1.242,0-2.484.01-3.727,0-1.212-.012-1.745-.517-1.754-1.723q-.029-3.815,0-7.63c.008-1.235.5-1.732,1.72-1.739q3.807-.022,7.615,0c1.241.006,1.742.483,1.752,1.7q.03,3.815,0,7.63c-.009,1.255-.533,1.75-1.8,1.759S-722.076,427.786-723.345,427.786Zm2.781-8.27H-726v5.465h5.434Z" transform="translate(-74.92 -118.824)" fill="#121a50"/>
    <path id="Path_134" data-name="Path 134" d="M-792.639,294.2c0-1.272-.008-2.543,0-3.815.009-1.188.5-1.708,1.66-1.713q3.888-.017,7.777,0c1.12.005,1.616.511,1.622,1.655q.02,3.9,0,7.792c-.006,1.133-.505,1.619-1.646,1.624q-3.889.016-7.777,0c-1.124-.005-1.622-.515-1.634-1.648C-792.65,296.8-792.639,295.5-792.639,294.2Zm8.234,2.739v-5.435h-5.425v5.435Z" transform="translate(-24.947 -18.56)" fill="#121a50"/>
    <path id="Path_135" data-name="Path 135" d="M-781.579,422.243c0,1.272.01,2.543,0,3.815-.011,1.185-.5,1.711-1.655,1.718q-3.889.025-7.777,0c-1.1-.008-1.622-.556-1.627-1.675q-.017-3.9,0-7.792c.006-1.084.5-1.608,1.583-1.617q3.969-.032,7.939,0c1.041.01,1.517.52,1.533,1.573C-781.564,419.591-781.58,420.917-781.579,422.243Zm-8.258-2.747v5.462h5.43V419.5Z" transform="translate(-24.943 -118.819)" fill="#121a50"/>
  </g>
</svg>
