<svg xmlns="http://www.w3.org/2000/svg" width="39.004" height="39.005" viewBox="0 0 39.004 39.005">
  <path id="Path_47" data-name="Path 47" d="M523.214,422.352a19,19,0,1,0,19,19A19.024,19.024,0,0,0,523.214,422.352Zm16.322,17.691h-7.148c-.178-5.927-1.555-10.951-3.67-14.114A16.414,16.414,0,0,1,539.536,440.043Zm-16.322,17.691c-2.966,0-6.253-6.124-6.55-15.068h13.1C529.467,451.61,526.18,457.734,523.214,457.734Zm-6.55-17.691c.3-8.944,3.584-15.068,6.55-15.068s6.253,6.124,6.549,15.068Zm1.045-14.114c-2.114,3.163-3.491,8.187-3.669,14.114h-7.148A16.414,16.414,0,0,1,517.709,425.929Zm-10.817,16.737h7.148c.178,5.927,1.555,10.952,3.669,14.114A16.413,16.413,0,0,1,506.892,442.666Zm21.826,14.114c2.115-3.162,3.492-8.187,3.67-14.114h7.148A16.412,16.412,0,0,1,528.718,456.78Z" transform="translate(-503.712 -421.852)" fill="#121a50" stroke="#121a50" stroke-width="1"/>
</svg>
