<svg xmlns="http://www.w3.org/2000/svg" width="42" height="39.51" viewBox="0 0 42 39.51">
  <g id="Hetero" transform="translate(-43.964 -171.071)">
    <path id="Path_45" data-name="Path 45" d="M69.082,198.82a10.991,10.991,0,0,0-9.525,3.637,1.03,1.03,0,0,0,.374,1.61,5.523,5.523,0,0,0,2.3.5,4.6,4.6,0,0,0,2.087-.412,7.656,7.656,0,0,1,3.479-1,6.614,6.614,0,1,1-6.339,8.493,1.015,1.015,0,0,0-.828-.729,11.929,11.929,0,0,1-2.356-.561c-.923-.322-1.518.174-1.366,1.14.057.363.136.718.227,1.068l-4.687,2.385-1.274-2.594A1.013,1.013,0,0,0,49.8,211.9l-2.042,1.04a1.048,1.048,0,0,0-.463,1.388l1.274,2.593-4.038,2.054a1.05,1.05,0,0,0-.464,1.389l1.028,2.1a1.012,1.012,0,0,0,1.368.457l4.041-2.056,1.278,2.6a1.013,1.013,0,0,0,1.369.456l2.042-1.039a1.049,1.049,0,0,0,.463-1.389l-1.278-2.6,4.7-2.39A11.021,11.021,0,1,0,69.082,198.82Z" transform="translate(0 -13.454)" fill="#121a50"/>
    <path id="Path_46" data-name="Path 46" d="M92.119,172.847,85.18,171.1c-.548-.138-.787.162-.531.666l1.313,2.583-8.252,4.336a11.023,11.023,0,1,0-.431,14.183,1.039,1.039,0,0,0-.343-1.644,5.523,5.523,0,0,0-2.3-.5,4.563,4.563,0,0,0-2.069.4,7.7,7.7,0,0,1-3.5,1.007,6.614,6.614,0,1,1,6.339-8.493,1.015,1.015,0,0,0,.829.729,11.944,11.944,0,0,1,2.354.561c.89.31,1.516-.176,1.373-1.107a10.922,10.922,0,0,0-.268-1.22l8.253-4.337,1.33,2.616c.256.5.633.485.836-.042l2.626-6.789A.889.889,0,0,0,92.119,172.847Z" transform="translate(-6.848 0)" fill="#121a50"/>
  </g>
</svg>
